<?xml version="1.0" encoding="UTF-8" standalone="no"?>
<svg width="137px" height="18px" viewBox="0 0 137 18" version="1.1" xmlns="http://www.w3.org/2000/svg" xmlns:xlink="http://www.w3.org/1999/xlink" xmlns:sketch="http://www.bohemiancoding.com/sketch/ns">
    <!-- Generator: Sketch 3.2.2 (9983) - http://www.bohemiancoding.com/sketch -->
    <title>join-chat</title>
    <desc>Created with Sketch.</desc>
    <defs></defs>
    <g id="Page-1" stroke="none" stroke-width="1" fill="none" fill-rule="evenodd" sketch:type="MSPage">
        <g id="join-chat" sketch:type="MSLayerGroup">
            <rect id="Rectangle-path" fill="#4B4B4B" sketch:type="MSShapeGroup" x="0" y="0" width="117" height="18"></rect>
            <rect id="Rectangle-path" fill="#EF1E52" sketch:type="MSShapeGroup" x="49" y="0" width="88" height="18"></rect>
            <text id="JOIN-CHAT-→" fill="#FFFFFF" sketch:type="MSTextLayer" font-family="Helvetica" font-size="11" font-weight="normal">
                <tspan x="57.5" y="12">JOIN CHAT </tspan>
                <tspan x="117.60791" y="12" font-family="Lucida Grande">→</tspan>
            </text>
            <path d="M6.13941578,11.8296209 L6.13941578,8.2558713 C6.13941578,7.80955152 6.2280211,7.38892524 6.40523439,6.99398081 C6.58244774,6.59903295 6.82062532,6.25386372 7.11977421,5.95845941 C7.41892316,5.6630551 7.77009292,5.42946478 8.1732939,5.25767476 C8.57649487,5.08589159 9.00407646,5 9.45605184,5 C9.86900728,5 10.2591963,5.06743096 10.6266293,5.20229287 C10.9940623,5.33714794 11.3208452,5.52659029 11.6069877,5.77061994 C11.8996334,5.52659029 12.2256041,5.33714794 12.5849079,5.20229287 C12.9442117,5.06743096 13.3270873,5 13.7335395,5 C14.1920174,5 14.6212222,5.08589159 15.0211747,5.25767476 C15.4211202,5.42946478 15.7690401,5.6630551 16.0649343,5.95845941 C16.3608355,6.25386372 16.5957626,6.59903295 16.7697225,6.99398081 C16.9436825,7.38892524 17.0306625,7.80955152 17.0306625,8.2558713 L17.0306625,11.8296209 C17.0306625,11.9869569 16.9989615,12.134657 16.9355526,12.2727274 C16.8721507,12.4107978 16.7867939,12.5320085 16.6794892,12.6363634 C16.5721846,12.7407191 16.4470039,12.8225966 16.3039264,12.8819988 C16.1608558,12.941401 16.0096623,12.9711017 15.8503319,12.9711017 C15.6910016,12.9711017 15.5398012,12.941401 15.3967306,12.8819988 C15.25366,12.8225966 15.1284724,12.7407191 15.0211747,12.6363634 C14.91387,12.5320085 14.8285132,12.4107978 14.7651113,12.2727274 C14.7017024,12.134657 14.6700014,11.9869569 14.6700014,11.8296209 L14.6700014,8.2558713 C14.6700014,7.99257479 14.5805797,7.76781269 14.4017432,7.58157817 C14.2228998,7.39534433 14.0001675,7.30222878 13.7335395,7.30222878 C13.4734042,7.30222878 13.2547369,7.39213376 13.0775236,7.57194576 C12.9003124,7.75175777 12.8052039,7.97009803 12.7921975,8.22697271 C12.7921975,8.23339454 12.7938235,8.23821075 12.7970748,8.24142201 C12.8003267,8.24463258 12.8019527,8.24944878 12.8019527,8.2558713 L12.8019527,11.8296209 C12.8019527,11.9869569 12.7702496,12.1362626 12.7068428,12.2775436 C12.643436,12.4188246 12.5588957,12.5432465 12.4532177,12.6508127 C12.3475404,12.7583789 12.2231679,12.8434677 12.0800959,12.9060807 C11.9370246,12.9686939 11.785827,13 11.6264973,13 C11.4671684,13 11.315157,12.9686939 11.1704598,12.9060807 C11.0257632,12.8434677 10.9005777,12.7583789 10.7948997,12.6508127 C10.6892224,12.5432465 10.6046814,12.4188246 10.5412746,12.2775436 C10.4778678,12.1362626 10.4461654,11.9869569 10.4461654,11.8296209 L10.4461654,8.2558713 L10.4461654,8.22697271 C10.4396622,8.10174663 10.4095851,7.98214093 10.3559335,7.86815289 C10.3022812,7.75416484 10.2323726,7.65543027 10.1462049,7.57194576 C10.0600372,7.48846125 9.95842552,7.42263866 9.84136709,7.37447457 C9.72430865,7.32631049 9.60237437,7.30222878 9.47556147,7.30222878 C9.34224535,7.30222878 9.21624683,7.32631049 9.09756242,7.37447457 C8.9788787,7.42263866 8.87401507,7.49167251 8.78297016,7.58157817 C8.69192456,7.67148451 8.62201594,7.77343034 8.57324153,7.88741839 C8.52446713,8.00140643 8.50008027,8.1242227 8.50008027,8.2558713 L8.50008027,11.8296209 C8.50008027,11.9869569 8.46837722,12.134657 8.40497111,12.2727274 C8.34156432,12.4107978 8.25621032,12.5320085 8.14890704,12.6363634 C8.04160376,12.7407191 7.91641822,12.8225966 7.77334695,12.8819988 C7.63027568,12.941401 7.47907731,12.9711017 7.31974768,12.9711017 C7.16041873,12.9711017 7.00922036,12.941401 6.86614909,12.8819988 C6.72307796,12.8225966 6.59789249,12.7407191 6.49058901,12.6363634 C6.38328552,12.5320085 6.2979318,12.4107978 6.23452521,12.2727274 C6.1711186,12.134657 6.13941578,11.9869569 6.13941578,11.8296209 L6.13941578,11.8296209 Z M17.9183521,9.02649124 L17.9183521,6.17519883 C17.9183521,6.01786222 17.950053,5.86855375 18.0134619,5.72727342 C18.0768639,5.5859931 18.161409,5.46237196 18.2670836,5.35641686 C18.372765,5.25045491 18.4971341,5.16857739 18.6402047,5.11077747 C18.7832753,5.0529844 18.9361059,5.02408444 19.0986826,5.02408444 C19.2580129,5.02408444 19.4092134,5.0529844 19.5522839,5.11077747 C19.6953545,5.16857739 19.8197236,5.25045491 19.9254051,5.35641686 C20.0310796,5.46237196 20.1156248,5.5859931 20.1790267,5.72727342 C20.2424356,5.86855375 20.2741366,6.01786222 20.2741366,6.17519883 L20.2741366,9.02649124 C20.2741366,9.25767791 20.3155975,9.47200478 20.3985126,9.66947666 C20.4814276,9.86694921 20.5968622,10.0411395 20.7448093,10.1920536 C20.8927564,10.3429677 21.0642746,10.4609677 21.2593778,10.5460572 C21.454474,10.6311466 21.6658231,10.673691 21.8934388,10.673691 C22.1210476,10.673691 22.3348384,10.6311466 22.5348181,10.5460572 C22.7347909,10.4609677 22.9079393,10.3429677 23.0542632,10.1920536 C23.2005801,10.0411395 23.3152031,9.86694921 23.3981181,9.66947666 C23.4810332,9.47200478 23.5224941,9.25767791 23.5224941,9.02649124 L23.5224941,6.17519883 C23.5224941,6.01786222 23.5541951,5.86855375 23.6175971,5.72727342 C23.6810059,5.5859931 23.7655442,5.46237196 23.8712256,5.35641686 C23.9769002,5.25045491 24.1012762,5.16857739 24.2443468,5.11077747 C24.3874173,5.0529844 24.5386178,5.02408444 24.6979481,5.02408444 C24.8572715,5.02408444 25.0092836,5.0529844 25.1539843,5.11077747 C25.2986781,5.16857739 25.4238657,5.25045491 25.5295402,5.35641686 C25.6352217,5.46237196 25.7197599,5.5859931 25.7831688,5.72727342 C25.8465777,5.86855375 25.8782786,6.01786222 25.8782786,6.17519883 L25.8782786,9.02649124 C25.8782786,9.57234909 25.7734157,10.0852881 25.5636829,10.5653227 C25.3539571,11.0453573 25.069446,11.4627723 24.710136,11.8175801 C24.3508329,12.1723879 23.929758,12.4533402 23.4468904,12.6604458 C22.9640229,12.8675507 22.446215,12.9711017 21.8934388,12.9711017 C21.3406627,12.9711017 20.8228478,12.8675507 20.3399802,12.6604458 C19.8571197,12.4533402 19.4360378,12.1723879 19.0767347,11.8175801 C18.7174316,11.4627723 18.4345438,11.0453573 18.2280643,10.5653227 C18.0215918,10.0852881 17.9183521,9.57234909 17.9183521,9.02649124 L17.9183521,9.02649124 Z M27.0195899,9.02649124 L27.0195899,6.17519883 C27.0195899,6.01786222 27.0472259,5.86855375 27.1025049,5.72727342 C27.1577839,5.5859931 27.2374456,5.46237196 27.341497,5.35641686 C27.4455483,5.25045491 27.5658594,5.16857739 27.7024302,5.11077747 C27.8389941,5.0529844 27.9869412,5.02408444 28.1462715,5.02408444 C28.3056019,5.02408444 28.4551722,5.0529844 28.5949964,5.11077747 C28.7348136,5.16857739 28.8567479,5.25045491 28.9607992,5.35641686 C29.0648505,5.46237196 29.1453238,5.5859931 29.202233,5.72727342 C29.2591352,5.86855375 29.2875828,6.01786222 29.2875828,6.17519883 L29.2875828,9.02649124 C29.2875828,9.25767791 29.3322902,9.47200478 29.4217119,9.66947666 C29.5111336,9.86694921 29.6306262,10.0411395 29.7802034,10.1920536 C29.9297737,10.3429677 30.1061754,10.4609677 30.3094015,10.5460572 C30.5126276,10.6311466 30.731295,10.673691 30.9654105,10.673691 C31.1865195,10.673691 31.3994987,10.6311466 31.604355,10.5460572 C31.8092043,10.4609677 31.9880408,10.3429677 32.1408644,10.1920536 C32.4595251,9.87738238 32.6204786,9.48886526 32.623732,9.02649124 L32.623732,6.17519883 C32.623732,6.01786222 32.6546213,5.86855375 32.7164001,5.72727342 C32.7781788,5.5859931 32.8610938,5.46237196 32.9651521,5.35641686 C33.0692034,5.25045491 33.1927609,5.16857739 33.3358315,5.11077747 C33.4789021,5.0529844 33.6301025,5.02408444 33.7894329,5.02408444 C33.9487562,5.02408444 34.0999567,5.0529844 34.2430273,5.11077747 C34.3860979,5.16857739 34.5112855,5.25045491 34.6185901,5.35641686 C34.7258948,5.46237196 34.8112446,5.5859931 34.8746535,5.72727342 C34.9380624,5.86855375 34.9697634,6.01786222 34.9697634,6.17519883 L34.9697634,9.02649124 C34.9697634,9.55950542 34.8714002,10.064417 34.6746807,10.541241 C34.4779544,11.0180643 34.1893784,11.4443089 33.808939,11.8199878 C33.4284996,12.1956675 33.000918,12.4814359 32.5261804,12.6773029 C32.0514427,12.8731697 31.5441994,12.9711017 31.0044297,12.9711017 C30.4516536,12.9711017 29.9338456,12.8675507 29.4509781,12.6604458 C28.9681105,12.4533402 28.5470356,12.1723879 28.1877325,11.8175801 C27.8284225,11.4627723 27.5439115,11.0453573 27.3341856,10.5653227 C27.1244528,10.0852881 27.0195899,9.57234909 27.0195899,9.02649124 L27.0195899,9.02649124 Z M35.618461,6.22336087 C35.618461,6.06602425 35.6485318,5.91671578 35.7086873,5.77543546 C35.7688429,5.63415514 35.8517579,5.51134229 35.9574394,5.40698323 C36.0631139,5.30263101 36.1874899,5.21914376 36.3305605,5.15653517 C36.4736311,5.09391973 36.6264547,5.06261544 36.7890384,5.06261544 L41.9834749,5.06261544 C42.1427983,5.06261544 42.2923755,5.09391973 42.4321928,5.15653517 C42.57201,5.21914376 42.6947628,5.30263101 42.8004374,5.40698323 C42.9061188,5.51134229 42.9890339,5.63415514 43.0491825,5.77543546 C43.109338,5.91671578 43.1394158,6.06602425 43.1394158,6.22336087 C43.1394158,6.38069748 43.109338,6.5308074 43.0491825,6.67369061 C42.9890339,6.81657862 42.9061188,6.9401977 42.8004374,7.04455266 C42.6947628,7.1489083 42.57201,7.23239075 42.4321928,7.29500414 C42.2923755,7.35761752 42.1427983,7.38892318 41.9834749,7.38892318 L40.4909835,7.38892318 L40.4909835,11.8296209 C40.4909835,11.9869569 40.4633474,12.134657 40.4080684,12.2727274 C40.3527894,12.4107978 40.2731277,12.5320085 40.1690764,12.6363634 C40.0650251,12.7407191 39.9430908,12.8225966 39.8032736,12.8819988 C39.6634494,12.941401 39.5138791,12.9711017 39.3545487,12.9711017 C39.1952184,12.9711017 39.0472713,12.941401 38.9107074,12.8819988 C38.7741366,12.8225966 38.6538324,12.7407191 38.5497811,12.6363634 C38.4457298,12.5320085 38.3652495,12.4107978 38.3083473,12.2727274 C38.2514451,12.134657 38.2229906,11.9869569 38.2229906,11.8296209 L38.2229906,7.38892318 L36.7890384,7.38892318 C36.6297081,7.38892318 36.477696,7.35761752 36.3329953,7.29500414 C36.1883015,7.23239075 36.0631139,7.1489083 35.9574394,7.04455266 C35.8517579,6.9401977 35.7688429,6.81738143 35.7086873,6.67610179 C35.6485318,6.53482147 35.618461,6.38391011 35.618461,6.22336087 L35.618461,6.22336087 Z" id="Imported-Layers" fill="#FFFFFF" sketch:type="MSShapeGroup"></path>
        </g>
    </g>
</svg>